<svg width="173" height="23" viewBox="0 0 173 23" fill="none" xmlns="http://www.w3.org/2000/svg">
<path d="M147.798 9.12675V22.9866H152.143V13.7467H168.034V22.9866H172.379V9.12675H147.798ZM151.646 4.63339H168.406C170.765 4.19038 172.441 2.03863 172.938 0.0134468H147.115C147.612 2.03863 149.35 4.12709 151.646 4.63339ZM134.576 22.9866C136.749 22.0373 137.928 20.3918 138.425 18.4932H118.871V0.0767336H114.464V22.9866H134.576ZM81.8754 4.5701H97.3939C99.7527 3.87394 101.677 2.03863 102.174 0.0767336H77.5923V13.6201H97.7043V18.3666H81.9375C79.4545 19.0628 77.344 20.7715 76.2888 22.9866H102.049V9.12675H81.9375L81.8754 4.5701ZM43.6379 4.63339H60.3979C62.7567 4.19038 64.4947 2.03863 64.9293 0.0134468H39.0444C39.541 2.03863 41.2791 4.12709 43.6379 4.63339ZM43.6379 13.6834H60.3979C62.7567 13.2404 64.4947 11.0886 64.9293 9.06346H39.0444C39.541 11.0886 41.2791 13.1771 43.6379 13.6834ZM43.6379 22.9866H60.3979C62.7567 22.5436 64.4947 20.3918 64.9293 18.3666H39.0444C39.541 20.3918 41.2791 22.5436 43.6379 22.9866Z" fill="gray"/>
<path d="M0 0.0773173C0.496591 2.1025 2.23466 4.12767 4.5314 4.63397H11.6078L11.9803 4.76054V22.9239H16.3875V4.76054L16.76 4.63397H23.8364C26.1952 4.0011 27.8712 2.1025 28.3678 0.0773173V0.0140305L0 0.0773173Z" fill="gray"/>
</svg>
